<svg width="41" height="53" fill="none" xmlns="http://www.w3.org/2000/svg"><path d="M18.163.008c-.69 1.289-9.984 18.676-13.988 26.147-.139.258-.128.445.007.698 3.923 7.32 11.873 22.17 11.955 22.308.082-.137 8.032-14.988 11.955-22.307.135-.253.147-.44.007-.698-2.244-4.174-4.474-8.358-6.719-12.532-.144-.267-.154-.467-.004-.736.617-1.112 1.208-2.238 1.834-3.406.088.15 6.037 11.255 8.954 16.695.123.229.133.4.007.636-4.616 8.614-9.225 17.234-13.829 25.856-.122.23-.247.335-.527.33-1.14-.018-2.281-.013-3.421-.002-.211.002-.323-.065-.423-.253A25901.78 25901.78 0 00.076 26.756c-.096-.18-.105-.315-.005-.502C4.708 17.592 9.339 8.93 13.977.27c.058-.11.196-.249.298-.25C15.548.002 16.82.008 18.163.008z" fill="#fff"/><path d="M23.436 5.314c-2.122 3.954-7.972 14.88-11.16 20.83-.135.255-.145.442-.006.699 2.245 4.175 4.474 8.358 6.719 12.532.144.268.151.467.002.736-.617 1.112-1.208 2.238-1.835 3.407-.083-.141-6.03-11.246-8.954-16.698-.123-.228-.132-.399-.007-.635A20011.22 20011.22 0 0022.024.33c.123-.232.25-.334.527-.33 1.14.02 2.28.014 3.42.003.213-.002.323.068.424.254 4.628 8.665 9.26 17.328 13.896 25.988.097.18.103.316.004.502-4.637 8.66-9.267 17.322-13.905 25.982-.059.11-.196.248-.299.249-1.272.017-2.544.01-3.877.01.087-.17 9.386-17.574 13.98-26.146.138-.258.127-.445-.01-.698-3.922-7.32-11.872-22.17-11.954-22.308-.015.026-.306.567-.794 1.478z" fill="#fff"/></svg>