<svg width="41" height="53" viewBox="0 0 41 53" fill="none" xmlns="http://www.w3.org/2000/svg">
<path d="M18.163 0.00817664C17.4734 1.29652 8.17858 18.6843 4.17479 26.155C4.03603 26.4133 4.0467 26.6001 4.18226 26.8531C8.10493 34.1732 16.0549 49.0228 16.137 49.1615C16.2192 49.0238 24.1692 34.1732 28.0918 26.8541C28.2274 26.6012 28.2391 26.4144 28.0993 26.1561C25.8546 21.9815 23.6248 17.7984 21.3801 13.6238C21.236 13.357 21.2264 13.1574 21.3758 12.8884C21.9928 11.7762 22.5841 10.6501 23.2096 9.48234C23.2982 9.63284 29.2467 20.7369 32.1639 26.1774C32.2867 26.4058 32.2973 26.5766 32.1714 26.8125C27.5549 35.4274 22.9459 44.0466 18.3423 52.669C18.2195 52.8995 18.0946 53.0041 17.815 52.9999C16.675 52.9807 15.534 52.986 14.394 52.9967C14.1827 52.9988 14.0706 52.9316 13.9713 52.7437C9.34417 44.0786 4.71276 35.4157 0.0760104 26.7559C-0.0200547 26.5755 -0.0285938 26.441 0.0706736 26.2543C4.70849 17.5924 9.33883 8.92943 13.9766 0.269688C14.0354 0.160814 14.173 0.0209854 14.2755 0.019918C15.5478 0.00177235 16.8202 0.00817664 18.163 0.00817664Z" fill="white"/>
<path d="M23.4357 5.3136C21.3137 9.26828 15.4644 20.1941 12.2761 26.1448C12.1406 26.3988 12.131 26.5856 12.2697 26.8429C14.5145 31.0185 16.7442 35.2006 18.989 39.3751C19.1331 39.643 19.1405 39.8416 18.9911 40.1105C18.3741 41.2228 17.7828 42.3489 17.1563 43.5177C17.073 43.3768 11.1255 32.2716 8.20191 26.8205C8.07916 26.592 8.06955 26.4213 8.1955 26.1854C12.8109 17.5715 17.4199 8.95234 22.0236 0.329951C22.1474 0.0983275 22.2733 -0.00414166 22.5508 0.000127909C23.6908 0.0193409 24.8319 0.0140039 25.9718 0.00332995C26.1842 0.00119517 26.2942 0.0705753 26.3945 0.257369C31.0227 8.92245 35.6541 17.5854 40.2909 26.2451C40.388 26.4255 40.3944 26.5611 40.2952 26.7468C35.6584 35.4066 31.0281 44.0695 26.3903 52.7292C26.3315 52.8381 26.1939 52.9769 26.0914 52.9779C24.8191 52.995 23.5467 52.9886 22.2136 52.9886C22.3011 52.8178 31.6002 35.414 36.1932 26.8418C36.3319 26.5835 36.3213 26.3967 36.1846 26.1437C32.262 18.8236 24.312 3.97402 24.2299 3.83633C24.2149 3.86195 23.9235 4.40312 23.4357 5.3136Z" fill="white"/>
</svg>
